<svg
  xmlns="http://www.w3.org/2000/svg"
  width="16"
  height="16"
  viewBox="0 0 16 16"
  class="nav-icon"
  aria-hidden="true"
>

  <!-- background fill -->
  <path
    d="M2 2a2 2 0 0 1 2-2h8a2 2 0 0 1 2 2v12a2 2 0 0 1-2 2H4a2 2 0 0 1-2-2z"
    fill="rgba(0,0,0,0.06)"
  />

  <!-- text lines -->
  <path
    d="M5 4a.5.5 0 0 0 0 1h6a.5.5 0 0 0 0-1zm-.5 2.5A.5.5 0 0 1 5 6h6a.5.5 0 0 1 0 1H5a.5.5 0 0 1-.5-.5M5 8a.5.5 0 0 0 0 1h6a.5.5 0 0 0 0-1zm0 2a.5.5 0 0 0 0 1h3a.5.5 0 0 0 0-1z"
    fill="currentColor"
    opacity="0.7"
  />

  <!-- outline -->
  <path
    d="M2 2a2 2 0 0 1 2-2h8a2 2 0 0 1 2 2v12a2 2 0 0 1-2 2H4a2 2 0 0 1-2-2z"
    fill="none"
    stroke="currentColor"
    stroke-width="1.25"
  />
</svg>
