<?xml version="1.0" encoding="UTF-8"?>
<svg version="1.1" xmlns="http://www.w3.org/2000/svg" width="95" height="71">
<path d="M0 0 C1.67542976 0.28604898 3.34385343 0.61781233 5 1 C5.37344442 7.97096259 4.14584821 12.70830358 1 19 C2.2065625 18.9690625 2.2065625 18.9690625 3.4375 18.9375 C6 19 6 19 7 20 C7.23529412 25.52941176 7.23529412 25.52941176 6 28 C5.960008 29.99960012 5.95653201 32.00047242 6 34 C6.5775 32.845 7.155 31.69 7.75 30.5 C8.11609375 29.77425781 8.4821875 29.04851563 8.859375 28.30078125 C9.59920881 26.80844524 10.31931561 25.30610261 11.015625 23.79296875 C14.28435115 16.80152672 14.28435115 16.80152672 18 15 C20.625 14.6875 20.625 14.6875 23 15 C25 17 25 17 25.0625 19.75 C23.61012661 24.19255391 20.87190129 26.47834604 17 29 C16.34 29 15.68 29 15 29 C15.99 30.485 15.99 30.485 17 32 C19.93375101 31.32942834 21.61941083 30.5040235 23.4453125 28.0859375 C24.6840771 26.08267818 25.87054327 24.06666551 27 22 C28.485 22.495 28.485 22.495 30 23 C25.96240602 32.29323308 25.96240602 32.29323308 21 35 C16.70132139 35.65744496 13.70660486 35.47106991 10 33 C9.773125 33.639375 9.54625 34.27875 9.3125 34.9375 C8 37 8 37 5.5 37.875 C4.675 37.91625 3.85 37.9575 3 38 C1 36 1 36 0.875 33.375 C0.91625 32.59125 0.9575 31.8075 1 31 C-0.65 31 -2.3 31 -4 31 C-4.66 34.3 -5.32 37.6 -6 41 C-7.79090253 41.19466332 -9.58276505 41.38051213 -11.375 41.5625 C-12.87160156 41.71912109 -12.87160156 41.71912109 -14.3984375 41.87890625 C-17 42 -17 42 -19 41 C-19.33 41.99 -19.66 42.98 -20 44 C-22.95664519 45.4783226 -25.74229737 45.06032783 -29 45 C-29.33 44.01 -29.66 43.02 -30 42 C-31.32 42 -32.64 42 -34 42 C-34.22042969 43.12535156 -34.22042969 43.12535156 -34.4453125 44.2734375 C-36.6835076 54.48681052 -40.28127405 62.85726126 -49 69 C-52.19233485 70.59616743 -55.53461497 70.51466114 -59 70 C-61.43119623 68.12984906 -62.64069173 66.71861655 -64 64 C-64.06010379 57.989621 -62.93296389 53.67703814 -59 49 C-52.67160968 42.95287147 -46.52141156 40.74749224 -38 40 C-36.62401611 27.36261274 -36.62401611 27.36261274 -39 15 C-39.66 14.34 -40.32 13.68 -41 13 C-43.57540213 13.16507646 -43.57540213 13.16507646 -46 14 C-48.12883578 18.25767156 -47.70363417 23.85628554 -46.24609375 28.296875 C-44.39154581 32.16597109 -42.29095069 35.17918512 -39 38 C-40.485 38.495 -40.485 38.495 -42 39 C-46.93225806 36.48140014 -50.26645463 33.2980263 -52 28 C-52.73432244 22.84475673 -53.01893174 17.88996869 -50.125 13.375 C-47.44476782 10.37944638 -46.69641508 10.07883944 -42.6875 9.625 C-39 10 -39 10 -36.125 12.3125 C-33.20796902 16.00168623 -32.87598326 18.54510419 -32.90234375 23.10546875 C-32.90556641 24.08837891 -32.90878906 25.07128906 -32.91210938 26.08398438 C-32.92048828 27.10814453 -32.92886719 28.13230469 -32.9375 29.1875 C-32.94201172 30.22326172 -32.94652344 31.25902344 -32.95117188 32.32617188 C-32.9629599 34.88417266 -32.97941485 37.44205733 -33 40 C-32.01 40 -31.02 40 -30 40 C-29.9175 38.783125 -29.835 37.56625 -29.75 36.3125 C-29.23152357 32.18659598 -28.03616779 29.94942014 -25 27 C-21.70177526 24.69124268 -18.94246383 24.91611779 -15 25 C-14.01 24.67 -13.02 24.34 -12 24 C-12.33 28.62 -12.66 33.24 -13 38 C-9.51658982 30.8082094 -7.86795352 24.21353229 -6.578125 16.37304688 C-5.56660551 10.71812973 -4.22853228 4.22853228 0 0 Z M1 3 C0.46845258 4.60064843 -0.04988353 6.20568874 -0.5625 7.8125 C-0.85253906 8.70582031 -1.14257812 9.59914063 -1.44140625 10.51953125 C-2.24979556 13.11215139 -2.24979556 13.11215139 -1 16 C1.21854707 11.37802694 2.38281159 8.23175837 2 3 C1.67 3 1.34 3 1 3 Z M20 17 C16.7457985 19.83430453 15.4793247 21.68607774 15 26 C17.49415272 25.00233891 18.78740335 24.31383315 20.3125 22.0625 C21.28125 19.84375 21.28125 19.84375 20 17 Z M2 22 C0.45833358 23.37485532 0.45833358 23.37485532 -1 25 C-1 25.66 -1 26.32 -1 27 C0.32 26.67 1.64 26.34 3 26 C2.67 24.68 2.34 23.36 2 22 Z M-21.4375 29.25 C-24.71823773 32.77079171 -25.93952372 34.42761669 -26.125 39.25 C-26.08375 40.1575 -26.0425 41.065 -26 42 C-24.68 42 -23.36 42 -22 42 C-19.13472743 39.13472743 -17.95374444 35.89445647 -17 32 C-17.28639786 29.22252318 -17.28639786 29.22252318 -18 27 C-19.4304017 26.88695332 -19.4304017 26.88695332 -21.4375 29.25 Z M-53.00390625 48.87109375 C-57.54448045 53.85097508 -57.54448045 53.85097508 -60 60 C-59.67253546 64.52060221 -59.67253546 64.52060221 -57 68 C-53.39536585 67.91989702 -51.42674881 67.30939288 -48.5 65.1875 C-43.16607 59.24744159 -39.36249072 50.97479595 -39 43 C-44.77533285 43 -48.77437966 44.92188666 -53.00390625 48.87109375 Z " fill="#2B2B2B" transform="translate(64,0)"/>
</svg>
