<?xml version="1.0" encoding="UTF-8"?>
<svg version="1.1" xmlns="http://www.w3.org/2000/svg" width="162" height="141">
<path d="M0 0 C2.69082872 0.17635452 5.32851446 0.61835921 8 1 C8.17128418 1.7206665 8.34256836 2.44133301 8.51904297 3.18383789 C9.30274045 6.47711355 10.08884948 9.76980909 10.875 13.0625 C11.14441406 14.19623047 11.41382813 15.32996094 11.69140625 16.49804688 C13.0154873 22.03658101 14.36860734 27.54354592 16 33 C18.97 33.495 18.97 33.495 22 34 C21.625 35.9375 21.625 35.9375 21 38 C20.01 38.495 20.01 38.495 19 39 C20.9914056 39.38133299 22.99279077 39.71325582 25 40 C26.62993277 38.37006723 26.30042496 36.43824634 26.46484375 34.1875 C26.58182617 32.69669922 26.58182617 32.69669922 26.70117188 31.17578125 C26.8563898 29.08996014 27.01008373 27.00402496 27.16210938 24.91796875 C27.64762337 18.76812483 28.50914222 12.98838273 30 7 C32.3125 6.75 32.3125 6.75 35 7 C37.22490293 9.22490293 37.98277371 10.40161318 38.07421875 13.578125 C37.88279297 14.90070312 37.88279297 14.90070312 37.6875 16.25 C37.56761719 17.14203125 37.44773438 18.0340625 37.32421875 18.953125 C37.21722656 19.62859375 37.11023438 20.3040625 37 21 C38.7732461 19.73253547 40.54350975 18.46089765 42.3125 17.1875 C43.79169922 16.12595703 43.79169922 16.12595703 45.30078125 15.04296875 C48.92633809 12.2988787 51.13697314 10.15598299 53 6 C54.98 6 56.96 6 59 6 C59.75 7.625 59.75 7.625 60 10 C56.4767855 16.89324577 49.88585518 22.55707241 43 26 C42.34 26 41.68 26 41 26 C41 26.66 41 27.32 41 28 C40.34 28.33 39.68 28.66 39 29 C42.50988258 31.92639826 46.43504753 33.7463524 50.5625 35.625 C51.23474609 35.93695313 51.90699219 36.24890625 52.59960938 36.5703125 C55.37386255 37.84861783 58.09992543 39.03330848 61 40 C60.98839844 39.08476563 60.97679688 38.16953125 60.96484375 37.2265625 C60.95582031 36.03804687 60.94679688 34.84953125 60.9375 33.625 C60.92589844 32.44164062 60.91429688 31.25828125 60.90234375 30.0390625 C61 27 61 27 62 25 C62 24.21109375 62 23.4221875 62 22.609375 C62 15.05070994 62 15.05070994 64.92578125 11.9765625 C70.14085072 8.47708872 74.48649197 6.8620929 80.765625 6.90234375 C81.65507812 6.90556641 82.54453125 6.90878906 83.4609375 6.91210938 C84.38132812 6.92048828 85.30171875 6.92886719 86.25 6.9375 C87.65378906 6.94426758 87.65378906 6.94426758 89.0859375 6.95117188 C91.39069041 6.96293082 93.69531227 6.97936574 96 7 C96 8.32 96 9.64 96 11 C94.78376953 11.14695312 94.78376953 11.14695312 93.54296875 11.296875 C85.9109522 12.3275082 79.11703308 14.06190618 72 17 C72 18.65 72 20.3 72 22 C72.61746094 21.9278125 73.23492187 21.855625 73.87109375 21.78125 C79.62108387 21.1511141 85.21646559 20.90671719 91 21 C92.125 24.75 92.125 24.75 91 27 C84.0938934 28.8114378 77.04649876 29.87923708 70 31 C70.020625 32.11375 70.04125 33.2275 70.0625 34.375 C70 38 70 38 69 40 C69.99 40 70.98 40 72 40 C72.495 42.97 72.495 42.97 73 46 C77.49365277 44.18546088 80.39650543 42.98067867 83 38.75 C83.33 37.8425 83.66 36.935 84 36 C84.66 36 85.32 36 86 36 C86 35.34 86 34.68 86 34 C87.65 34.33 89.3 34.66 91 35 C90.5015918 41.23010254 89.10427225 45.33116865 84.2734375 49.484375 C79.93422421 52.56158602 76.37203651 53.68494608 71.05078125 53.36328125 C68.15746409 52.85075078 66.23905479 51.88920248 64 50 C63.67 49.01 63.34 48.02 63 47 C62.236875 47.2475 61.47375 47.495 60.6875 47.75 C52.16878303 48.32754013 44.10745976 43.28202514 37 39 C37.05220703 40.17949219 37.05220703 40.17949219 37.10546875 41.3828125 C37 44 37 44 35.3125 45.875 C32.42729162 47.27861489 31.01268757 46.92054342 28 46 C28 45.34 28 44.68 28 44 C27.43410156 44.32613281 26.86820313 44.65226562 26.28515625 44.98828125 C23.7850998 46.09514385 22.15223557 46.23802807 19.4375 46.1875 C18.67308594 46.18105469 17.90867188 46.17460938 17.12109375 46.16796875 C15 46 15 46 12 45 C11.649375 44.154375 11.29875 43.30875 10.9375 42.4375 C9.29494156 39.83050821 9.29494156 39.83050821 6.97265625 39.6015625 C4.27804411 39.55899359 1.68210684 39.73697571 -1 40 C-1.95390625 40.06058594 -2.9078125 40.12117188 -3.890625 40.18359375 C-9.43602652 40.75305036 -9.43602652 40.75305036 -13.81640625 43.9140625 C-14.79038208 45.35341059 -15.73749185 46.81142999 -16.65234375 48.2890625 C-18 50 -18 50 -21.375 50.5 C-22.24125 50.335 -23.1075 50.17 -24 50 C-24.92550505 47.50113636 -25.04422814 46.17248976 -24.375 43.5625 C-23 41 -23 41 -20.75 38.8125 C-11.61943127 29.47441834 -6.40176797 15.58152233 -1.98046875 3.51953125 C-1 1 -1 1 0 0 Z M2 16 C-0.13724364 19.52356383 -2.19447687 23.08037419 -4.1875 26.6875 C-4.71730469 27.64011719 -5.24710938 28.59273437 -5.79296875 29.57421875 C-7.14849424 31.84684842 -7.14849424 31.84684842 -7 34 C-2.20699867 35.39151652 2.15135782 34.68662689 7 34 C6.54994536 31.56070386 6.09035124 29.12388223 5.625 26.6875 C5.49867187 25.99720703 5.37234375 25.30691406 5.2421875 24.59570312 C4.57885682 21.16296686 3.96502361 18.94753542 2 16 Z " fill="#2c2c2c" transform="translate(66,48)"/>
<path d="M0 0 C0.86882813 -0.02578125 1.73765625 -0.0515625 2.6328125 -0.078125 C3.74269531 0.08429687 3.74269531 0.08429687 4.875 0.25 C5.535 1.24 6.195 2.23 6.875 3.25 C3.7573506 6.95970301 1.64914545 7.79331168 -3.125 8.3125 C-7.40082003 8.78818498 -9.87419846 9.36647652 -13.125 12.25 C-12.63580078 13.30574219 -12.63580078 13.30574219 -12.13671875 14.3828125 C-6.66751594 26.74095219 -4.86328038 37.78459121 -4.75 51.1875 C-4.72909302 52.80531372 -4.72909302 52.80531372 -4.70776367 54.45581055 C-4.74390524 60.48112604 -5.14393257 64.96472586 -8.125 70.25 C-11.04471527 72.76419926 -12.78348838 73.21340947 -16.625 73.625 C-22.73741928 72.97009793 -26.16851117 69.7854872 -30.125 65.25 C-38.44667369 52.74689126 -38.44667369 52.74689126 -38.3125 45.5625 C-38.30605469 44.79550781 -38.29960938 44.02851562 -38.29296875 43.23828125 C-38.125 41.25 -38.125 41.25 -37.125 39.25 C-29.52929561 38.66820137 -23.98384959 39.98110147 -17.125 43.25 C-17.455 44.57 -17.785 45.89 -18.125 47.25 C-21.39685553 48.32310858 -23.55447592 48.14263102 -26.875 47.3125 C-27.67421875 47.11785156 -28.4734375 46.92320313 -29.296875 46.72265625 C-30.20179687 46.48869141 -30.20179687 46.48869141 -31.125 46.25 C-28.70420371 53.87869358 -25.26942208 59.9816381 -19.125 65.25 C-16.98624358 66.03212758 -16.98624358 66.03212758 -15.125 66.25 C-12.3933686 49.53241581 -13.89922763 33.62792582 -21.125 18.25 C-21.44210938 17.49203125 -21.75921875 16.7340625 -22.0859375 15.953125 C-22.42882812 15.39109375 -22.77171875 14.8290625 -23.125 14.25 C-26.18408413 13.43415432 -26.18408413 13.43415432 -29.125 13.25 C-29.125 13.91 -29.125 14.57 -29.125 15.25 C-31.04012272 15.75588147 -32.95716922 16.25448391 -34.875 16.75 C-35.94234375 17.0284375 -37.0096875 17.306875 -38.109375 17.59375 C-41.125 18.25 -41.125 18.25 -45.125 18.25 C-45.125 15.94 -45.125 13.63 -45.125 11.25 C-37.51061669 7.86715271 -29.87544078 5.8339013 -21.75 4.0625 C-19.45050667 3.54824039 -17.15102692 3.03392011 -14.8515625 2.51953125 C-13.34456787 2.18852417 -13.34456787 2.18852417 -11.80712891 1.85083008 C-10.17396471 1.48498108 -8.54462383 1.10059305 -6.92382812 0.68334961 C-4.59488392 0.12229153 -2.39317027 0.04286275 0 0 Z " fill="#000000" transform="translate(45.125,33.75)"/>
</svg>
